<?xml version="1.0" encoding="UTF-8"?>
<svg id="Layer_2" xmlns="http://www.w3.org/2000/svg" viewBox="0 0 200.63 95.56">
  <defs>
    <style>
      .cls-1 {
        fill: #fff;
      }

      .cls-1, .cls-2 {
        stroke: #231f20;
        stroke-miterlimit: 10;
      }

      .cls-2 {
        fill: #804098;
      }
    </style>
  </defs>
  <g id="Logo_3">
    <g>
      <path class="cls-2" d="M35.66,38.55c-.32-.25-.71-.42-.92-.77.18.01.36.02.54.04.09-.16-.02-.35-.12-.5-.35-.52-.7-1.05-1.18-1.45-.44-.38-.97-.63-1.49-.88,0,.33.08.65.21.95-.27.17-.6-.11-.8-.36-.31-.39-.62-.78-.92-1.17-.3-.39-.71-.65-1.13-.91-.4-.25-.8-.5-1.2-.76-.78-.49-1.56-.98-2.35-1.48-.12.2.06.44.22.6.16.17.32.43.18.61-.3-.02-.56-.19-.82-.34-1.16-.72-2.32-1.44-3.47-2.17-.5-.31-1.33-.46-1.86-.72-.48-.24-.9-.58-1.35-.86-1-.63-2.13-1.01-3.16-1.57-1.06-.58-2-.74-2.93-1.51-.03-.21-.26-.29-.47-.33-.5-.11-.97-.31-1.4-.58.43-.23.92-.3,1.39-.43,1.06-.29,2.01-.87,2.94-1.44.24-.14.48-.29.65-.51.16-.21.28-.48.53-.57.4-.15.95.28,1.23-.04.13-.15.11-.39.25-.52.27-.26.83.13,1.07-.16.12-.15.05-.39-.09-.52-.14-.13-.33-.19-.51-.27-.32-.14-.6-.37-.8-.65.6.1,1.2.19,1.8.29.31.05.74-.26.86-.55.13-.29.04-.66-.2-.87-.17-.14-.39-.21-.58-.31-.2-.1-.38-.27-.39-.49.14-.05.3.04.42.13l1.88,1.38c.3.22.63.45,1,.43.11-.19-.02-.43-.11-.63-.1-.2-.12-.51.08-.59.58,1.01,2.11.93,2.99,1.69.23.2.41.45.61.68.43.49.98.89,1.58,1.14.21.09.37.27.59.32s.51-.09.52-.32c0-.07-.02-.14-.05-.2-.11-.32-.23-.64-.43-.9-.19-.24-.45-.41-.68-.61-.4-.34-.72-.76-1.04-1.18-.37-.49-.74-.98-1.11-1.46-.58-.77-1.17-1.54-1.57-2.42.87.49,1.69,1.08,2.43,1.75.1.09.21.18.34.16.17-.03.24-.24.23-.41-.02-.23-.13-.45-.31-.6.33-.26.8-.12,1.18.05s.83.35,1.19.15c.09-.05.17-.12.27-.15.12-.03.25,0,.37.01.35.05.71-.04,1-.24-.02-.07-.01-.06.03-.12.09-.13.17-.26.26-.39.16-.25.34-.52.61-.65.26-.13.56-.12.83-.22.36-.12.65-.42,1.02-.48l-.04-12.8L.5,19.18v10.58l32.58,18.27h.39v-4.89c-.47-.85-.77-1.76-.99-2.7-.07-.29-.1-.65.13-.84.12-.1.29-.13.43-.22.19-.13.29-.38.52-.42.16-.03.32.07.46.17.15.11.3.22.45.33.25.18.51.37.81.43.3.06.66-.04.8-.31v-.54c-.08-.19-.23-.37-.4-.5Z"/>
      <path class="cls-2" d="M167.55,47.52h-.39v4.89c.47.85.77,1.76.99,2.7.07.29.1.65-.13.84-.12.1-.29.13-.43.22-.19.13-.29.38-.52.42-.16.03-.32-.07-.45-.17-.15-.11-.3-.22-.45-.33-.25-.18-.51-.37-.81-.43-.3-.06-.66.04-.8.31v.54c.08.19.23.37.4.5.32.25.71.42.92.77l-.54-.04c-.09.16.02.35.12.5.35.52.7,1.05,1.18,1.45.44.38.97.63,1.49.88,0-.33-.08-.65-.21-.95.27-.17.6.11.8.36l.92,1.17c.3.39.71.65,1.13.91l1.2.76c.78.49,1.56.98,2.35,1.48.12-.2-.06-.44-.22-.6-.16-.17-.32-.43-.18-.61.3.02.56.19.82.34,1.16.72,2.32,1.44,3.47,2.17.5.31,1.33.46,1.86.72.48.24.9.58,1.35.86,1,.63,2.13,1.01,3.16,1.57,1.06.58,2,.74,2.93,1.51.03.21.26.29.47.33.5.11.97.31,1.4.58-.43.23-.92.3-1.39.43-1.06.29-2.01.87-2.94,1.44-.24.14-.48.29-.65.51-.16.21-.28.48-.53.57-.4.15-.95-.28-1.23.04-.13.15-.11.39-.25.52-.27.26-.83-.13-1.07.16-.12.15-.05.39.09.52.14.13.33.19.51.27.32.14.6.37.8.65-.6-.1-1.2-.19-1.8-.29-.31-.05-.74.26-.86.55-.13.29-.04.66.2.87.17.14.39.21.58.31.2.1.38.27.39.49-.14.05-.3-.04-.42-.13-.63-.46-1.26-.92-1.88-1.38-.3-.22-.63-.45-1-.43-.11.19.02.43.11.63.1.2.12.51-.08.59-.58-1.01-2.11-.93-2.99-1.69-.23-.2-.41-.45-.61-.68-.43-.49-.98-.89-1.58-1.14-.21-.09-.37-.27-.59-.32s-.51.09-.52.32c0,.07.02.14.05.2.11.32.23.64.43.9.19.24.45.41.68.61.4.34.72.76,1.04,1.18.37.49.74.98,1.11,1.46.58.77,1.17,1.54,1.57,2.42-.87-.49-1.69-1.08-2.43-1.75-.1-.09-.21-.18-.34-.16-.17.03-.24.24-.23.41.02.23.13.45.31.6-.33.26-.8.12-1.18-.05-.38-.17-.83-.35-1.19-.15-.09.05-.17.12-.27.15-.12.03-.25,0-.37-.01-.35-.05-.71.04-1,.24.02.07.01.06-.03.12-.09.13-.17.26-.26.39-.16.25-.34.52-.61.65-.26.13-.56.12-.83.22-.36.12-.65.42-1.02.48l.04,12.8,32.96-18.33v-10.58l-32.58-18.27Z"/>
      <path class="cls-1" d="M113.47,38.8h-14.32v-8.05c-1.92,1.93-4.16,4.13-6.65,6.53v5.71h20.98v-4.2Z"/>
      <path class="cls-1" d="M99.15,27.91h.15c2.26-1.9,4.06-3.34,5.25-4.2h-5.4v-10.68h14.32v-4.28h-20.98v25.04c2.48-2.2,4.73-4.14,6.65-5.76v-.13Z"/>
      <path class="cls-1" d="M109.57,27.91v-4.2h-3.87c-.65.86-1.96,2.31-3.77,4.2h7.64Z"/>
      <path class="cls-1" d="M145.4,58.67c2.55-.71,4.93-1.37,7.1-1.96l1.48-5.67h-7.92l-.65,7.63Z"/>
      <path class="cls-1" d="M156.65,51.04l-.4,4.67c3.33-.88,5.94-1.53,7.6-1.9l.72-2.77h-7.92Z"/>
      <path class="cls-1" d="M155.55,63.88h5.68l2.45-9.4c-1.69.61-4.27,1.46-7.54,2.5l-.59,6.9Z"/>
      <path class="cls-1" d="M144.96,63.88h5.68l1.47-5.62c-2.1.66-4.4,1.36-6.84,2.11l-.3,3.52Z"/>
      <path class="cls-1" d="M132.2,61.66c-3.03-.46-5.33-.9-6.61-1.25v22.25h-7.25v4.2h21.02v-4.2h-7.16v-21Z"/>
      <path class="cls-1" d="M118.34,56.89h7.25v2.68c1.28-.1,3.58-.07,6.61.06v-2.74h7.16v-4.28h-21.02v4.28Z"/>
      <path class="cls-1" d="M157.52,18.42h-11.47v4.32h8.97c.97-1.73,1.81-3.19,2.5-4.32Z"/>
      <path class="cls-1" d="M152.66,27.06h-6.6v4.28h4.31c.8-1.51,1.56-2.94,2.28-4.28Z"/>
      <path class="cls-1" d="M152.71,31.34h10.81v-4.28h-8.76c-.63,1.34-1.32,2.77-2.05,4.28Z"/>
      <path class="cls-1" d="M163.52,22.74v-4.32h-4.87c-.46,1.13-1.1,2.59-1.88,4.32h6.76Z"/>
      <path class="cls-1" d="M61.79,26.81c-.41-.76-.89-1.37-1.44-1.82-.55-.45-1.17-.68-1.84-.68h-3.96c4.08,4.57,7.08,8.09,8.4,9.91.06-.53.09-1.07.09-1.64,0-1.1-.11-2.15-.32-3.14-.21-.99-.52-1.86-.93-2.63Z"/>
      <path class="cls-1" d="M56.94,29.75c.23.41.4.88.51,1.42.11.54.17,1.09.17,1.65,0,1.19-.23,2.22-.7,3.09-.47.88-1.11,1.31-1.93,1.31h-2.33v-8.86h2.33c.26,0,.49.06.71.16-1.87-1.84-4.01-3.97-6.34-6.34v2.12h-1.99c-.68,0-1.22-.4-1.63-1.21-.41-.81-.61-1.8-.61-2.99,0-1.27.2-2.3.61-3.09.41-.79.95-1.19,1.63-1.19h1.99v2.75c1.15,1.26,2.26,2.47,3.31,3.63v-6.38h8.35v-2.88h-8.35v-4.2h-3.31v4.2h-4.45c-1.75,0-3.11.66-4.07,1.97-.96,1.31-1.44,3.09-1.44,5.32,0,1.07.13,2.1.38,3.07s.61,1.84,1.08,2.58c.47.75,1.01,1.35,1.63,1.8.62.45,1.31.68,2.08.68h4.79v8.86h-8.98v2.84h8.98v2.92h3.31v-2.92h5.85c.71,0,1.34-.19,1.91-.57.56-.38,1.04-.9,1.42-1.57.38-.66.68-1.45.89-2.37.03-.15.05-.31.08-.46-1.1-.85-3.16-2.73-5.88-5.38,0,.01.02.02.02.03Z"/>
      <path class="cls-1" d="M86.22,11.47c-.57-.85-1.24-1.51-2.03-1.99-.79-.48-1.67-.72-2.63-.72h-15.38v5.01c1.18-.08,3.49.33,6.57,1.14v-1.87h6.02c.45,0,.87.14,1.25.42.38.28.71.66.97,1.12.27.47.47,1.01.61,1.63.14.62.21,1.27.21,1.95v15.55c0,.65-.07,1.28-.21,1.89-.01.04-.03.08-.04.13,1.28.03,3.4.44,6.13,1.15.23-.99.35-2.05.35-3.17v-15.55c0-1.33-.16-2.56-.49-3.71-.33-1.14-.77-2.14-1.34-2.99Z"/>
      <path class="cls-1" d="M84.21,42.27c.75-.45,1.4-1.06,1.94-1.82-2.43-1.28-4.23-2.38-5.18-3.2-.27.47-.58.84-.96,1.12-.38.28-.8.42-1.25.42h-6.02v-19.55c-3.1-1.55-5.39-2.9-6.57-3.87v27.61h15.38c.96,0,1.84-.24,2.65-.72Z"/>
      <path class="cls-1" d="M124.53,42.99h8.05l5.7-24.78c-2.4-.28-4.28-.61-5.48-.98l-3.66,18.9h-.68l-.84-4.94c-2.48-.27-4.47-.59-5.8-.95l2.7,12.75Z"/>
      <path class="cls-1" d="M133.19,15.24c1.37-.37,3.42-.7,6-.97l1.27-5.51h-6.02l-1.25,6.48Z"/>
      <path class="cls-1" d="M126.96,27.27l-3.15-18.52h-6.53l4.13,19.51c1.2-.37,3.11-.71,5.55-1Z"/>
      <path class="cls-1" d="M54.18,55.45c1.04.17,3.25.97,6.26,2.24l.57-6.64h-5.68l-1.15,4.41Z"/>
      <path class="cls-1" d="M50.32,52.19l.1-1.15h-2.96c.84.32,1.8.7,2.86,1.15Z"/>
      <path class="cls-1" d="M51.98,63.88h7.92l.31-3.62c-3.11-1.82-5.31-3.25-6.23-4.07l-2.01,7.69Z"/>
      <path class="cls-1" d="M41.39,63.88h7.92l.78-9.15c-2.45-1.44-4.32-2.63-5.42-3.46l-3.29,12.6Z"/>
      <path class="cls-1" d="M75.97,71.76h5.68v2.5c2.47-1.1,4.54-1.97,6.06-2.54v-4.2h-11.74v4.24Z"/>
      <path class="cls-1" d="M72.62,77.57v-15.55c0-.68.08-1.33.23-1.95.15-.62.37-1.17.64-1.63.27-.47.59-.84.95-1.12.37-.28.78-.42,1.23-.42h11.53v-4.28h-14.28c-.96,0-1.84.24-2.65.72-.8.48-1.49,1.14-2.05,1.99-.57.85-1.01,1.84-1.34,2.99-.33,1.14-.49,2.38-.49,3.71v15.55c0,1.3.16,2.51.47,3.64.06.22.15.41.22.62,2.16-.99,4.09-1.84,5.73-2.53-.12-.56-.19-1.14-.19-1.73Z"/>
      <path class="cls-1" d="M81.65,82.66h-5.98c-.45,0-.87-.14-1.25-.42-.38-.28-.71-.66-.97-1.14-.02-.04-.04-.09-.06-.13-1.51.87-3.32,1.88-5.34,2.97.05.07.08.16.13.23.57.83,1.25,1.49,2.06,1.97.81.48,1.7.72,2.69.72h14.79v-13.67c-1.52.93-3.59,2.12-6.06,3.47v6Z"/>
      <path class="cls-1" d="M106.94,81.11c-.25.47-.57.84-.93,1.12-.37.28-.78.42-1.23.42h-3.64c-.48,0-.9-.14-1.27-.42-.37-.28-.68-.66-.93-1.12-.25-.47-.45-1-.59-1.61-.14-.61-.21-1.25-.21-1.93v-16.61c-2.74-1.51-4.89-2.74-6.27-3.58v20.19c0,1.3.15,2.51.44,3.64.3,1.13.73,2.11,1.29,2.95.56.83,1.25,1.49,2.06,1.97.81.48,1.72.72,2.73.72h9.15c1.02,0,1.93-.24,2.73-.72.81-.48,1.49-1.14,2.06-1.97.01-.02.02-.04.04-.06-2.3-1.28-4.14-2.33-5.37-3.08-.02.03-.03.06-.04.09Z"/>
      <path class="cls-1" d="M107.75,77.57c0,.68-.07,1.32-.21,1.93-.08.33-.17.63-.28.92,1.34.57,3.28,1.46,5.69,2.61.27-.56.51-1.16.69-1.82.31-1.13.47-2.34.47-3.64v-24.96h-6.36v24.96Z"/>
      <path class="cls-1" d="M98.13,52.61h-6.27v4.07c1.38.58,3.54,1.57,6.27,2.87v-6.95Z"/>
    </g>
  </g>
</svg>